<?xml version="1.0" standalone="no"?>
<!DOCTYPE svg PUBLIC "-//W3C//DTD SVG 1.1//EN" "http://www.w3.org/Graphics/SVG/1.1/DTD/svg11.dtd" >
<svg xmlns="http://www.w3.org/2000/svg">
<metadata>
Created by FontForge 20120731 at Sat Oct 10 10:16:54 2015
 By Ads
</metadata>
<defs>
<font id="fi" horiz-adv-x="1024" >
  <font-face 
    font-family="fi"
    font-weight="500"
    font-stretch="normal"
    units-per-em="1024"
    panose-1="2 0 6 3 0 0 0 0 0 0"
    ascent="812"
    descent="-212"
    x-height="792"
    bbox="6 -224 1097 812"
    underline-thickness="50"
    underline-position="-100"
    unicode-range="U+0078-E617"
  />
<missing-glyph horiz-adv-x="374" 
d="M34 0v682h272v-682h-272zM68 34h204v614h-204v-614z" />
    <glyph glyph-name=".notdef" horiz-adv-x="374" 
d="M34 0v682h272v-682h-272zM68 34h204v614h-204v-614z" />
    <glyph glyph-name=".null" horiz-adv-x="0" 
 />
    <glyph glyph-name="nonmarkingreturn" horiz-adv-x="341" 
 />
    <glyph glyph-name="x" unicode="x" horiz-adv-x="1001" 
d="M281 543q-27 -1 -53 -1h-83q-18 0 -36.5 -6t-32.5 -18.5t-23 -32t-9 -45.5v-76h912v41q0 16 -0.5 30t-0.5 18q0 13 -5 29t-17 29.5t-31.5 22.5t-49.5 9h-133v-97h-438v97zM955 310v-52q0 -23 0.5 -52t0.5 -58t-10.5 -47.5t-26 -30t-33 -16t-31.5 -4.5q-14 -1 -29.5 -0.5
t-29.5 0.5h-32l-45 128h-439l-44 -128h-29h-34q-20 0 -45 1q-25 0 -41 9.5t-25.5 23t-13.5 29.5t-4 30v167h911zM163 247q-12 0 -21 -8.5t-9 -21.5t9 -21.5t21 -8.5q13 0 22 8.5t9 21.5t-9 21.5t-22 8.5zM316 123q-8 -26 -14 -48q-5 -19 -10.5 -37t-7.5 -25t-3 -15t1 -14.5
t9.5 -10.5t21.5 -4h37h67h81h80h64h36q23 0 34 12t2 38q-5 13 -9.5 30.5t-9.5 34.5q-5 19 -11 39h-368zM336 498v228q0 11 2.5 23t10 21.5t20.5 15.5t34 6h188q31 0 51.5 -14.5t20.5 -52.5v-227h-327z" />
    <glyph glyph-name="uniE600" unicode="&#xe600;" 
d="M670 289l-400 -400l49 -49l448 449l-448 448l-49 -49zM270 688z" />
    <glyph glyph-name="uniE601" unicode="&#xe601;" 
d="M752 688l-49 49l-448 -448l448 -449l49 49l-400 400zM752 688z" />
    <glyph glyph-name="uniE602" unicode="&#xe602;" 
d="M133.5 95q9.5 -9 23 -9t22.5 9l328 331l332 -329q5 -5 11 -7.5t12 -2.5t12 2.5t10 7.5q7 6 9 14t-0.5 16.5t-8.5 14.5l-353 350h-1l-1 1v1q-10 9 -23 9t-22 -9l-350 -354q-10 -9 -10 -22.5t9.5 -22.5z" />
    <glyph glyph-name="uniE603" unicode="&#xe603;" 
d="M512 167q206 199 243 234q20 19 40 38.5t42 40.5q27 27 49 5q12 -15 9.5 -26t-15.5 -24q-37 -37 -106.5 -106t-126 -125t-107.5 -106q-4 -4 -7.5 -7t-7.5 -5t-7 -3t-6.5 -1t-7 1t-7 3t-7.5 5.5t-8 7.5q-61 60 -175 173t-163 162q-13 13 -15.5 24t8.5 26q4 5 8.5 7.5t9 3
t8.5 0t8.5 -3t8.5 -5.5t8 -7q97 -94 299 -289q1 -1 25 -23z" />
    <glyph glyph-name="uniE604" unicode="&#xe604;" horiz-adv-x="1138" 
d="M889 282q26 -20 36.5 -48.5t8.5 -59t-13.5 -61t-29.5 -55.5q-32 -46 -73.5 -77.5t-85.5 -52.5t-89 -33t-84 -18t-70.5 -7.5t-48.5 -1.5t-46 2.5t-64 10t-73.5 20.5t-75 34t-69.5 51.5t-56 73.5q-15 28 -20.5 60t-5.5 81q0 21 7 48t25.5 59.5t50 71t80.5 84.5
q48 45 99.5 80t110.5 54q26 10 59 11t54 -11q9 -10 18 -21.5t12 -27.5q2 -13 0 -25.5t-5 -25t-5 -24t2 -21.5q16 -2 31.5 1.5t30 8.5t29.5 11t31 9q26 5 51.5 4.5t46 -7.5t34 -21t16.5 -36q2 -13 -2 -24.5t-8.5 -21.5t-7 -20.5t1.5 -22.5q3 -7 14 -12.5t25.5 -11.5
t30.5 -12.5t27 -15.5zM647 -16q25 15 50.5 42t41.5 60t18 71t-19 76q-19 32 -45 54t-59 35t-70 19t-75 6q-74 0 -131 -15.5t-99 -40.5t-68 -56.5t-36 -64.5q-11 -32 -6.5 -63t20 -59t40 -50t53.5 -35q55 -24 112 -30.5t109 -0.5t94.5 20t69.5 32zM522 287q19 -8 36 -17.5
t31 -25.5q9 -12 16.5 -29t10.5 -37t1.5 -40t-9.5 -36q-8 -18 -19 -35.5t-26.5 -33t-38 -27.5t-53.5 -18q-58 -10 -110.5 11t-82.5 70q-12 38 -13 66.5t16 62.5q12 26 37.5 48.5t58.5 36.5t70.5 16t74.5 -12zM369 51q35 -3 54 17t20.5 45t-14.5 45t-49 16q-26 -3 -40.5 -22.5
t-16.5 -41t9 -39.5t37 -20zM762 762q70 0 131 -18.5t106.5 -54t71.5 -86.5t26 -115q0 -32 -15.5 -48t-33.5 -16.5t-33 13.5t-15 43q0 38 -21.5 73t-56 60.5t-79 40.5t-90.5 15q-30 0 -44.5 14.5t-13.5 32t18 32t49 14.5zM762 609q89 0 135 -46t46 -138q0 -29 -9.5 -41
t-21 -10.5t-21 14t-9.5 33.5q0 57 -33 90.5t-87 33.5q-19 0 -27.5 10t-8.5 21.5t9 22t27 10.5z" />
    <glyph glyph-name="uniE605" unicode="&#xe605;" 
d="M517 795q92 0 172.5 -35t140.5 -95t94.5 -140t34.5 -171q0 -93 -34.5 -173t-94.5 -140t-140.5 -95t-172.5 -35h-13q-6 0 -12 1h-5q-15 2 -25.5 14t-10.5 28q0 18 12 30t30 12q4 0 12 -2l1 1h11q74 0 139.5 28t114 77t77 114.5t28.5 139t-28.5 139t-77 114t-114 76.5
t-139.5 28t-139.5 -28t-113.5 -76.5t-76 -114t-28 -138.5q0 -76 29 -144q7 -9 7 -22q0 -18 -12.5 -30t-29.5 -12q-12 0 -20.5 4.5t-14.5 12.5q-21 43 -32 90.5t-11 100.5q0 91 34.5 171t94.5 140t140.5 95t171.5 35zM722 354q0 -42 -16 -79.5t-43.5 -65t-65 -44t-80.5 -16.5
q-35 0 -66 10.5t-57 31.5q-11 -14 -28.5 -34t-37 -44.5t-40 -51.5t-37.5 -54q-26 -38 -48 -78.5t-38 -74.5q-20 -40 -36 -78l-105 4q15 44 37 92q20 41 48 91.5t67 100.5q22 27 45.5 55t46 52.5t42 44.5t32.5 33q-29 48 -29 105q0 42 16 79t43.5 65t65 43.5t79.5 15.5
q43 0 80.5 -15.5t65 -43.5t43.5 -65t16 -79z" />
    <glyph glyph-name="uniE606" unicode="&#xe606;" 
d="M835 734h-641q-26 0 -49.5 -7.5t-40.5 -20t-27 -30t-10 -37.5v-479q0 -39 37 -67t90 -28h320l254 -188l-14 188h81q53 0 90 28t37 67v479q0 40 -37 67.5t-90 27.5zM263.5 329q-32.5 0 -55.5 23t-23 56q0 15 6.5 29.5t17 25t25 17t30.5 6.5q32 0 55 -23t23 -55.5
t-23 -55.5t-55.5 -23zM431 408q0 15 6 29.5t16.5 25t25 17t30.5 6.5q12 0 24 -4t22 -11.5t17 -17t11 -21.5t4 -24q0 -22 -10.5 -40t-28.5 -28.5t-39 -10.5q-33 0 -55.5 23t-22.5 56zM760 331q-22 0 -40 10t-28.5 28t-10.5 40q0 12 4 24t11.5 21.5t17 17t21.5 11.5t24.5 4
t24.5 -4t21.5 -11.5t17 -17t11.5 -21.5t4 -24q0 -16 -6.5 -30.5t-17 -25t-25 -16.5t-29.5 -6z" />
    <glyph glyph-name="uniE607" unicode="&#xe607;" 
d="M992 530q-13 0 -13 -6q-422 -339 -429 -346q-12 -6 -38 -6h-4l-6 2q-2 0 -4 0.5t-5 1.5t-5 2l-5 2q-3 2 -4.5 2.5t-4.5 2.5l-429 345q-3 0 -6.5 3.5t-6.5 3.5q-6 0 -12 -4t-10 -10t-4 -12v-473q0 -29 18 -46.5t46 -17.5h890q24 0 44 20t20 44v473q0 4 -4 8t-11.5 7.5
t-16.5 3.5zM480 262q6 -7 32 -7q19 0 32 7l410 326l6 6q4 5 5 9t1 10.5t-3.5 12.5t-9.5 9.5t-12 3.5h-858q-9 0 -17 -8t-8 -17q0 -13 6 -20z" />
    <glyph glyph-name="uniE608" unicode="&#xe608;" 
d="M512 684q-264 -228 -411 -351q-16 -14 -16 -33q0 -18 12.5 -30.5t30.5 -12.5h85v-298q0 -18 12.5 -30.5t30.5 -12.5h128q9 0 16.5 3.5t13.5 9t9.5 13.5t3.5 17v170h170v-170q0 -12 6 -22t15.5 -15.5t21.5 -5.5h128q9 0 16.5 3.5t13.5 9t9.5 13.5t3.5 17v298h85
q18 0 30.5 12.5t12.5 30.5q0 20 -17 33q-146 123 -410 351v0z" />
    <glyph glyph-name="uniE609" unicode="&#xe609;" 
d="M888 514q-6 6 -14.5 8t-16.5 -0.5t-14 -9.5l-427 -454l-233 230q-10 9 -23 9t-22.5 -9.5t-9.5 -23t10 -22.5l256 -253h1q1 -1 7 -4q0 -1 1 -1.5t2 -1.5q6 -2 12 -2q7 1 12 3q1 0 2 1t2 1q5 3 7 5v0l449 479q9 9 9 22.5t-10 22.5z" />
    <glyph glyph-name="uniE60A" unicode="&#xe60a;" 
d="M557 299l266 264q9 9 9 22t-9 23q-6 6 -14.5 8.5t-16.5 0t-15 -8.5l-265 -264l-263 264q-9 9 -22.5 9t-23 -9t-9.5 -22.5t10 -22.5l263 -264l-265 -264q-10 -9 -10 -22.5t9.5 -22.5t22.5 -9t23 9l265 264l265 -267q10 -9 23 -9q3 0 6 0.5t6 1.5t5.5 3t5.5 4q9 10 9 23
t-9 23z" />
    <glyph glyph-name="uniE60B" unicode="&#xe60b;" 
d="M512 736q-146 0 -249 -103t-103 -249q0 -44 22.5 -102.5t60.5 -117.5t75.5 -111t80 -101t60.5 -69.5t30 -32.5q9 -10 23 -10h1q6 0 12.5 3t10.5 8l109 125q219 268 219 408q0 95 -47 176.5t-128.5 128.5t-176.5 47zM512 224q-66 0 -113 47t-47 113t47 113t113 47t113 -47
t47 -113t-47 -113t-113 -47z" />
    <glyph glyph-name="uniE60C" unicode="&#xe60c;" 
d="M849 -129h-674q-71 0 -99.5 49t5.5 111l340 609q35 63 91 63q13 0 25.5 -4t24 -12t22 -20t18.5 -27l341 -609q34 -63 5.5 -111.5t-99.5 -48.5zM512 639q-9 0 -18 -8t-17 -22l-340 -610q-17 -30 -7 -47q5 -8 16.5 -12.5t28.5 -4.5h674q35 0 45 17t-7 47l-341 610
q-16 30 -34 30zM512 160q-13 0 -22.5 9.5t-9.5 22.5v288q0 13 9.5 22.5t22.5 9.5t22.5 -9.5t9.5 -22.5v-288q0 -13 -9.5 -22.5t-22.5 -9.5zM464 48q0 -20 14 -34t34 -14t34 14t14 34q0 13 -6.5 24t-17.5 17.5t-24 6.5q-20 0 -34 -14t-14 -34z" />
    <glyph glyph-name="uniE60D" unicode="&#xe60d;" 
d="M509 158q-83 67 -146 146q-11 14 -18.5 24.5t-15 23.5t-9.5 23t0.5 21t10.5 19l-208 208q-11 -15 -20 -39.5t-8.5 -72.5t18 -103.5t68.5 -134.5t133 -162q86 -88 168.5 -143.5t141 -75t108.5 -21t76.5 8t38.5 22.5l-203 202q-10 -10 -22.5 -11.5t-30 7.5t-35 21.5
t-47.5 36.5zM920 19v1l-158 157q-10 10 -23 10t-22 -10l-58 -57l204 -203q4 4 10 9.5t18.5 18t20.5 21.5l8 8h1q9 10 9 23t-10 22zM405 488q9 11 9 23.5t-9 21.5v1l-163 162q-10 9 -23 9t-23 -9l-57 -57l208 -208z" />
    <glyph glyph-name="uniE60E" unicode="&#xe60e;" 
d="M939 -58l-183 183q55 75 70 165t-13 178.5t-95 155.5q-73 73 -172 99.5t-197.5 0t-172 -100t-100 -172t0 -197.5t99.5 -172q71 -71 164.5 -98t188.5 -6.5t169 85.5l181 -181q12 -12 30 -12t30.5 12.5t12.5 30t-13 29.5zM237 142q-87 87 -87 210t87.5 210.5t210.5 87.5
t210 -87q84 -84 87.5 -202t-74.5 -206l-3 -3l-2 -2q-1 -1 -2 -3q-2 -1 -3 -2.5t-3 -2.5q-87 -88 -210 -88t-211 88z" />
    <glyph glyph-name="uniE60F" unicode="&#xe60f;" 
d="M116 218q-25 -59 -28.5 -108.5t16.5 -59.5q14 -7 34.5 7.5t40.5 45.5q16 -66 76 -116q-31 -12 -48.5 -29t-17.5 -38q0 -16 12.5 -31t33.5 -26t50.5 -17.5t61.5 -6.5q13 0 25.5 1t24.5 3t23 5t20.5 7t18 8t16 9.5t13 11t9.5 11.5t6 12h5h8h6q4 -14 18 -26.5t34.5 -21.5
t47.5 -14.5t56 -5.5q65 0 111 24t46 57q0 21 -17.5 38t-48.5 29q60 50 76 116q21 -31 41 -45.5t34 -7.5q20 10 16.5 59.5t-28.5 108.5q-20 46 -44.5 78t-45.5 40q1 6 1 12q0 12 -2 23.5t-6 21.5t-10 19v4q0 17 -7 31q-5 125 -81.5 207t-200.5 82q-50 0 -93.5 -14.5t-77 -41
t-58 -62.5t-38 -79.5t-15.5 -91.5q-7 -14 -7 -31v-4q-8 -14 -13 -30t-5 -34q0 -6 1 -12q-21 -8 -45.5 -40t-44.5 -78z" />
    <glyph glyph-name="uniE610" unicode="&#xe610;" 
d="M757 360l-300 -215q14 -2 39 -5t103.5 -7.5t159.5 -3.5l-8 36l258 224q3 2 4.5 4.5t1.5 5.5t-1 6q0 2 -1 3.5t-2.5 3t-3 2.5t-3.5 1.5t-3 0.5l-341 29l-134 315q-1 5 -5 7.5t-9 2.5q-10 0 -14 -10l-134 -315l-341 -29q-10 -1 -13 -11q-2 -4 -0.5 -8.5t5.5 -7.5l258 -224
l-77 -334q-1 -4 0.5 -8.5t5.5 -7.5q8 -6 17 -1l293 177l293 -177q4 -2 8 -2q3 0 5 1l4 2q9 6 6 16l-61 264q12 6 25.5 14.5t21.5 14.5l8 6q-2 -1 -7 -3t-25 -7t-45 -9.5t-69 -9t-95.5 -6.5t-126 -0.5t-158.5 7.5l298 216q-1 2 -13.5 5.5t-109 12t-263.5 13.5q-3 1 2 2
q50 15 191 25q210 15 356 -16z" />
    <glyph glyph-name="uniE611" unicode="&#xe611;" 
d="M741 167q-6 0 -11 -0.5t-10.5 -1.5t-10 -2.5t-9.5 -3t-10 -3.5l-8 -6q-5 -2 -9 -4.5t-8 -5.5t-7.5 -6.5t-6.5 -7.5l-247 94q0 8 -1 15.5t-3 14.5l249 162q31 -23 70 -23q49 0 83.5 34.5t34.5 83.5q0 32 -15.5 59t-43 42.5t-59.5 15.5q-49 0 -84 -34.5t-35 -82.5
q0 -10 2 -20l-256 -166q-28 16 -61 16q-49 0 -83.5 -34t-34.5 -83q0 -24 9 -45.5t25 -37.5t38 -25t46 -9q49 0 83 34l254 -97q4 -46 38 -77t81 -31q49 0 83.5 34.5t34.5 82.5q0 24 -9.5 45.5t-25 37.5t-37.5 25.5t-46 9.5z" />
    <glyph glyph-name="uniE612" unicode="&#xe612;" 
d="M439 748v-286q0 -149 -75 -271q-37 -61 -85.5 -106.5t-109.5 -74.5q-107 127 -107 292q0 110 49.5 206.5t135.5 158.5q22 16 44.5 29t46.5 23t49.5 17.5t51.5 11.5zM731 -94q-101 -56 -217 -56t-217 56q82 51 139.5 124t77.5 158q10 -42 29.5 -81.5t48.5 -76.5
q58 -73 139 -124zM969 302q0 -165 -107 -292q-120 58 -195 181q-74 122 -74 271v286q105 -18 191 -81t135.5 -159t49.5 -206v0zM969 302z" />
    <glyph glyph-name="uniE613" unicode="&#xe613;" 
d="M72 313h393v394h-393v-394zM142 637h254v-254h-254v254zM72 -161h393v393h-393v-393zM142 162h254v-254h-254v254zM957 707h-393v-394h393v394zM888 383h-254v254h254v-254zM205 574h127v-128h-127v128zM698 574h128v-128h-128v128zM205 99h127v-128h-127v128zM570 226
h132v-131h-132v131zM833 226h131v-131h-131v131zM702 -31h-132v-132h263v258h-131v-126z" />
    <glyph glyph-name="uniE614" unicode="&#xe614;" 
d="M704 463q-87 0 -163 -38t-120 -103q-22 -32 -33.5 -67t-11.5 -73q0 -41 14 -78h-18q-64 0 -124 18l-124 -56l30 102q-64 43 -101 105t-37 134q0 124 104.5 213t251.5 89q128 0 227 -70t122 -176h-17zM218 473l8 -6q4 -3 8.5 -4.5t9.5 -2.5t10 -1q22 0 36.5 14.5
t14.5 35.5q0 11 -4 20t-11 16q-2 2 -4 3l-4 4l-4 2l-4 2l-4 2h-6l-4 2h-6q-21 0 -36 -15q-7 -7 -10.5 -16t-3.5 -20q0 -21 14 -36zM1008 182q0 -126 -116 -204l23 -87l-105 49q-50 -16 -106 -16q-124 0 -213 75.5t-89 182.5q0 70 40.5 129t110.5 93q23 11 47.5 18.5
t50.5 11.5t53 4q126 0 215 -75t89 -181zM526.5 545.5q-14.5 14.5 -35 14.5t-34.5 -15q-7 -7 -11 -16t-4 -19q0 -20 14.5 -34.5t35 -14.5t35 14.5t14.5 35t-14.5 35zM603 228q9 0 16.5 3.5t13.5 9.5q13 13 13 29q0 8 -3.5 15.5t-9.5 13.5q-12 13 -30 13q-6 0 -11 -1.5
t-10 -4.5t-9 -7q-13 -13 -13 -28q0 -12 6 -21q3 -5 7 -9t9 -7t10 -4.5t11 -1.5zM774.5 239q12.5 -13 31.5 -13q9 0 16.5 3.5t14 9.5t9.5 13.5t3 16.5q0 6 -1.5 11t-4 10t-6.5 9q-13 13 -31.5 13t-30.5 -13q-5 -4 -7.5 -9t-4 -10t-1.5 -11q0 -17 12.5 -30z" />
    <glyph glyph-name="uniE615" unicode="&#xe615;" 
d="M184 272q27 6 46 20t28.5 33.5t15 37.5t6 40t0 32.5t-2.5 22.5q-5 40 -43 81t-87 37q-25 -3 -45 -18t-30.5 -35t-17 -39.5t-8.5 -32.5l-2 -14q-2 -18 -0.5 -42t13 -48.5t27 -43.5t42.5 -28t58 -3zM303 41q-11 -32 -5 -54q12 -43 51 -49h2h59v143h-63q-18 -6 -29.5 -18
t-14.5 -22zM391 496q13 0 25.5 4t23.5 11.5t20.5 18.5t17 25t13 29.5t8.5 33t3 36.5q0 65 -32.5 111.5t-78.5 46.5t-78.5 -46.5t-32.5 -111.5q0 -26 5.5 -50t16 -43.5t24 -34t30.5 -22.5t35 -8zM656 485q38 -5 71 18t51 56.5t23 69.5q4 24 -3 50.5t-21 48t-34.5 37
t-41.5 20.5t-45 -7.5t-43.5 -34.5t-33 -49t-16.5 -50q-4 -40 2 -72t29 -57t62 -30zM857 94q-2 2 -7 6l-20 16l-28 26q-15 12 -35.5 31.5t-38.5 38.5t-37.5 42t-34.5 45q-36 56 -81 79.5t-85 16.5t-73.5 -29t-52.5 -54q-16 -27 -39 -53.5t-41 -43t-33.5 -30t-18.5 -16.5
q-2 -2 -15 -12t-28 -22.5t-33.5 -33.5t-30 -44t-18 -54.5t2.5 -64.5q9 -40 27.5 -68.5t36 -41.5t39 -20t28.5 -8t12 -1q83 -8 178 14q49 9 88.5 7.5t63.5 -7.5l25 -6q5 -1 13 -3.5t32.5 -7.5t47.5 -7t53 0t55 10.5t47.5 28t35.5 48.5q9 23 14 45.5t5.5 40.5t-2 34.5t-7 29.5
t-11 24.5t-12 19t-11 13.5t-8 8.5t-3.5 2.5zM476 -119h-144q-29 5 -51 20t-29.5 25t-10.5 17q-20 48 -11 100q7 25 21 43.5t27 27.5t27 14.5t20.5 7t8.5 1.5h77v94l65 -1v-349zM746 -118h-167q-56 14 -66 57q-1 3 -1 5v184l67 1v-165q1 -5 4.5 -9t7 -6t7 -3.5t5.5 -1.5l2 -1
h69v185h72v-246zM982 373q0 15 -6.5 34.5t-19 41.5t-39 37t-60.5 15q-111 0 -111 -154q0 -16 0.5 -27.5t3.5 -28t7.5 -28t14 -24t23 -20t33.5 -12t45 -4.5q20 1 36 5.5t27 14t19.5 19t13 24t8 24.5t4.5 26t1 24v20v13z" />
    <glyph glyph-name="uniE616" unicode="&#xe616;" 
d="M919 -119h-814q-18 0 -30.5 12.5t-12.5 30.5v728q0 18 12.5 30.5t30.5 12.5h493v-64h-450q-9 0 -15.5 -6.5t-6.5 -14.5v-644q0 -2 0.5 -4t1.5 -4t2 -3.5t2.5 -3t3 -2.5t3.5 -2t4 -1.5t5 -0.5h728q9 0 15.5 6.5t6.5 14.5v408h64v-450q0 -18 -12.5 -30.5t-30.5 -12.5v0z
M855 481q-17 0 -33 6l-371 -370l-3 3l-4 -3l-125 125l-103 -104l-47 46l147 147l3 -3l3 3l126 -126l328 329q-3 7 -5 15.5t-2 17.5q0 35 25 60t60.5 25t61 -25t25.5 -60q0 -10 -2.5 -20t-6.5 -18.5t-10 -15.5t-13.5 -13t-16 -10.5t-18 -6.5t-19.5 -2v0z" />
    <glyph glyph-name="uniE617" unicode="&#xe617;" 
d="M64 -32h895v-61h-895v61zM64 177h59v-270h-59v270zM900 177h59v-239h-59v239zM947 215h-306v57h241l-46 342h-648l-46 -342h211v-57h-277l61 457h749zM496 56q-85 0 -144 52t-59 136h58q0 -63 41.5 -97t103.5 -34q55 0 100.5 43t45.5 88h57q0 -68 -62 -128t-141 -60z" />
  </font>
</defs>
</svg>
